<svg width="19" height="19" viewBox="0 0 19 19" fill="none" xmlns="http://www.w3.org/2000/svg">
<path d="M17.8424 9.37261C17.6328 9.21591 17.3846 9.10925 17.1222 9.05914C17.1395 9.02952 17.1557 8.99938 17.171 8.96878L17.3352 8.81369C17.9679 8.21633 18.0344 7.27608 17.4897 6.62642C17.2326 6.31979 16.8756 6.11601 16.4792 6.03994C16.5075 5.99074 16.5326 5.94044 16.5554 5.88936C16.9863 5.30012 16.9792 4.50819 16.502 3.93897C16.2448 3.63215 15.8877 3.42772 15.4911 3.35179C15.8186 2.78335 15.7767 2.07489 15.3393 1.55327C15.0085 1.15878 14.5132 0.932462 13.9801 0.932462C13.5532 0.932462 13.1505 1.07647 12.8345 1.34015C12.7867 1.08388 12.6733 0.836369 12.4925 0.620804C12.1617 0.226321 11.6664 6.44055e-05 11.1333 0C10.67 0 10.2352 0.169708 9.90885 0.47776L5.75814 4.39619L5.74232 3.87322C5.73502 2.98249 4.96512 2.25992 4.01988 2.25992C3.09177 2.25992 2.33279 2.95647 2.29867 3.82485L1.47003 9.51224L0.78896 10.2596C0.38078 10.7077 0.408138 11.3855 0.851385 11.8029L1.86361 12.7569C1.55156 13.2 1.60621 13.8045 2.01412 14.1886L6.76703 18.6684C6.99415 18.8823 7.29563 19 7.61614 19C7.87928 19 8.13928 18.9166 8.34811 18.7652L9.34035 18.046C10.2949 17.8331 11.3472 17.3495 12.47 16.6078C13.4505 15.96 14.5141 15.0968 15.6313 14.0421L17.9939 11.8117C18.3424 11.4828 18.5257 11.0267 18.4971 10.5605C18.4684 10.095 18.2299 9.66211 17.8424 9.37261ZM13.3345 1.95664C13.5121 1.78905 13.746 1.70526 13.98 1.70526C14.2471 1.70526 14.5143 1.81443 14.6974 2.03283C14.9877 2.37914 14.9368 2.88169 14.606 3.19393L14.1846 3.5917C14.1197 3.6326 14.0564 3.67633 13.9972 3.72586C13.9494 3.46952 13.8359 3.22201 13.6552 3.00651C13.433 2.74155 13.1364 2.5529 12.8041 2.45733L13.3345 1.95664ZM10.4877 1.02424C10.6652 0.856657 10.8993 0.772866 11.1333 0.772866C11.4004 0.77293 11.6675 0.882097 11.8506 1.1005C12.141 1.4468 12.0901 1.9493 11.7593 2.26153L6.92094 6.7819L6.90505 6.25899C6.90089 5.75501 6.65262 5.30501 6.26675 5.0092L10.4877 1.02424ZM1.42951 11.2556C1.28747 11.1218 1.2788 10.9072 1.40966 10.7636L2.24751 9.84405C2.24792 9.8436 2.24826 9.84296 2.24833 9.84238L3.11613 3.88597C3.11613 3.41671 3.52281 3.03279 4.01988 3.03279C4.51696 3.03279 4.92371 3.41671 4.92371 3.88597L4.94724 4.66109C4.12938 4.7671 3.49258 5.41676 3.46134 6.21049L2.63276 11.8979L2.39173 12.1625L1.42951 11.2556ZM17.415 11.2652L15.0524 13.4956C13.0346 15.4005 10.9253 16.9296 9.07244 17.3108C9.01615 17.3224 8.96321 17.3448 8.9175 17.3779L7.84946 18.1522C7.78028 18.2024 7.69808 18.2271 7.61621 18.2271C7.51776 18.2271 7.41972 18.1913 7.3455 18.1214L2.59231 13.6413C2.4502 13.5076 2.44153 13.293 2.57246 13.1493L3.41024 12.2298C3.41072 12.2293 3.41099 12.2287 3.41112 12.2282L4.27886 6.27174C4.27886 5.80248 4.68561 5.4185 5.18268 5.4185C5.67976 5.4185 6.08644 5.80248 6.08644 6.27174L6.12914 7.67732C6.13624 7.91086 6.33975 8.06292 6.55151 8.06292C6.6548 8.06292 6.76014 8.02666 6.84549 7.94615L11.6505 3.41001C11.8281 3.24236 12.062 3.15864 12.2961 3.15864C12.5632 3.15864 12.8303 3.2678 13.0134 3.4862C13.3038 3.83251 13.2528 4.33507 12.922 4.64731L9.61195 7.77213C9.44009 7.93443 9.44009 8.1974 9.61195 8.35957C9.69893 8.44169 9.81293 8.48278 9.92693 8.48278C10.0409 8.48278 10.155 8.44169 10.2419 8.35957L14.4973 4.34241C14.6748 4.17476 14.9087 4.09103 15.1428 4.09103C15.4099 4.0911 15.6771 4.20027 15.8602 4.41867C16.1505 4.76491 16.0996 5.26747 15.7688 5.5797L11.5334 9.57806C11.3592 9.74255 11.3592 10.0091 11.5334 10.1736C11.6192 10.2546 11.7316 10.2951 11.8442 10.2951C11.9566 10.2951 12.0691 10.2546 12.155 10.1736L15.485 7.02992C15.6626 6.86227 15.8965 6.77855 16.1306 6.77855C16.3976 6.77855 16.6648 6.88771 16.8479 7.10618C17.1383 7.45242 17.0873 7.95498 16.7565 8.26721L13.458 11.3812C13.2798 11.5494 13.2798 11.8222 13.458 11.9904L13.4633 11.9955C13.5456 12.0732 13.6536 12.112 13.7614 12.112C13.8694 12.112 13.9773 12.0732 14.0596 11.9955L16.1045 10.065C16.2888 9.89101 16.5355 9.79903 16.7813 9.79903C16.9769 9.79903 17.172 9.85726 17.3344 9.97866C17.7683 10.3029 17.7952 10.9063 17.415 11.2652Z" fill="#1DA1F2"/>
</svg>
