<svg width="21" height="22" viewBox="0 0 21 22" fill="none" xmlns="http://www.w3.org/2000/svg">
<path d="M21 11.5C21 9.92 20.125 8.55 18.852 7.9C19.006 7.465 19.09 6.995 19.09 6.5C19.09 4.29 17.38 2.502 15.272 2.502C14.802 2.502 14.352 2.586 13.936 2.752C13.318 1.415 12.01 0.5 10.5 0.5C8.99002 0.5 7.68402 1.417 7.06302 2.75C6.64802 2.585 6.19702 2.5 5.72702 2.5C3.61702 2.5 1.90902 4.29 1.90902 6.5C1.90902 6.994 1.99202 7.464 2.14602 7.9C0.874023 8.55 -0.000976562 9.918 -0.000976562 11.5C-0.000976562 12.995 0.781024 14.298 1.94102 14.986C1.92102 15.156 1.90902 15.326 1.90902 15.5C1.90902 17.71 3.61702 19.5 5.72702 19.5C6.19702 19.5 6.64702 19.414 7.06202 19.25C7.68202 20.584 8.98802 21.5 10.499 21.5C12.011 21.5 13.317 20.584 13.936 19.25C14.351 19.413 14.801 19.498 15.272 19.498C17.382 19.498 19.09 17.708 19.09 15.498C19.09 15.324 19.078 15.154 19.057 14.985C20.215 14.298 21 12.995 21 11.501V11.5ZM14.384 8.166L10.05 14.666C9.90502 14.883 9.66802 15 9.42502 15C9.28202 15 9.13702 14.96 9.00902 14.874L8.89402 14.78L6.47902 12.365C6.18602 12.072 6.18602 11.597 6.47902 11.305C6.77202 11.013 7.24702 11.011 7.53902 11.305L9.30902 13.072L13.134 7.332C13.364 6.987 13.83 6.896 14.174 7.125C14.52 7.355 14.614 7.821 14.384 8.165V8.166Z" fill="#1DA1F2"/>
</svg>
